<?xml version="1.0" standalone="no"?>
<!DOCTYPE svg PUBLIC "-//W3C//DTD SVG 20010904//EN"
 "http://www.w3.org/TR/2001/REC-SVG-20010904/DTD/svg10.dtd">
<svg version="1.0" xmlns="http://www.w3.org/2000/svg"
 width="100.000000pt" height="100.000000pt" viewBox="0 0 100.000000 100.000000"
 preserveAspectRatio="xMidYMid meet">

<g transform="translate(0.000000,500.000000) scale(0.100000,-0.100000)"
fill="#000000" stroke="none">
<path d="M2415 3489 c-82 -90 -90 -103 -90 -139 0 -29 -4 -40 -15 -40 -30 0
-58 -30 -115 -127 -70 -118 -88 -140 -128 -149 -30 -6 -105 -74 -169 -153
l-35 -44 -81 72 -80 71 -65 -70 c-65 -70 -97 -90 -145 -90 -21 0 -51 -23 -132
-105 -58 -58 -101 -105 -96 -105 5 0 37 21 73 46 60 43 65 45 78 28 11 -16 16
-17 41 -5 16 8 53 15 82 17 39 2 61 10 83 28 22 19 42 26 71 26 34 0 39 3 33
18 -12 30 -18 80 -11 97 6 18 17 12 90 -48 l29 -23 -33 -37 -32 -37 78 0 c56
0 89 5 118 19 23 11 74 27 115 35 71 15 74 15 130 -8 32 -13 84 -40 117 -61
58 -37 124 -61 124 -45 0 5 -26 37 -57 70 -63 68 -124 112 -256 185 l-87 49
32 13 c50 21 75 49 134 149 48 82 110 154 133 154 4 0 22 21 39 48 16 26 44
60 61 76 29 28 31 29 50 12 27 -25 43 -68 39 -107 -3 -33 -5 -34 -51 -39 -44
-6 -54 -13 -137 -95 -99 -98 -99 -103 -8 -104 40 -1 50 -5 70 -32 13 -17 35
-43 49 -58 34 -33 181 -116 262 -147 102 -40 142 -63 218 -127 l71 -60 -7 42
c-4 22 -4 41 -1 41 11 0 36 -59 47 -108 5 -28 17 -58 25 -68 13 -17 14 -15 12
27 -2 58 5 69 48 69 45 0 66 -11 136 -71 103 -89 93 -55 -26 89 -131 156 -173
200 -241 245 -42 28 -56 48 -112 157 -82 157 -102 184 -168 221 -75 42 -115
91 -168 203 -25 53 -47 96 -49 96 -2 -1 -43 -46 -93 -101z m379 -407 c17 -10
53 -47 79 -82 60 -81 103 -126 145 -151 17 -12 32 -25 32 -30 0 -12 -96 32
-166 76 -64 41 -214 185 -214 205 0 18 84 5 124 -18z"/>
<path d="M3201 3261 c-24 -37 -42 -54 -75 -66 -38 -15 -53 -30 -100 -101 -31
-46 -56 -86 -56 -89 0 -9 33 12 64 41 26 24 28 25 21 5 -4 -15 -2 -21 8 -21
18 0 40 27 57 67 8 22 31 45 68 68 31 19 59 35 63 35 3 0 14 -15 24 -34 l19
-35 -32 -51 c-18 -28 -32 -53 -32 -56 0 -2 16 -4 35 -4 20 0 63 -8 96 -17 l59
-18 -6 -71 c-4 -47 -3 -78 6 -93 12 -23 12 -23 28 11 15 29 22 33 57 33 l40 0
14 -93 c7 -52 17 -90 21 -85 4 4 15 31 24 59 l17 52 52 -28 c54 -29 156 -64
217 -74 26 -5 15 3 -45 32 -145 70 -244 161 -340 310 -34 52 -47 64 -86 77
-52 18 -78 43 -138 133 -23 34 -43 62 -45 62 -1 0 -17 -22 -35 -49z"/>
<path d="M1740 2659 c-216 -19 -419 -73 -576 -153 -121 -61 -145 -81 -54 -47
198 76 432 106 769 98 330 -8 564 -44 986 -152 116 -30 257 -59 315 -66 252
-28 494 27 648 150 50 40 142 146 142 165 0 5 -9 -2 -19 -16 -52 -66 -193
-151 -301 -181 -203 -58 -403 -43 -721 52 -440 131 -835 181 -1189 150z"/>
<path d="M1740 1930 l0 -250 90 0 c109 0 163 18 188 64 14 25 17 59 17 186 0
227 -18 250 -200 250 l-95 0 0 -250z m178 11 c3 -164 -1 -181 -44 -181 l-24 0
0 171 0 170 33 -3 32 -3 3 -154z"/>
<path d="M2100 1930 l0 -250 55 0 55 0 0 250 0 250 -55 0 -55 0 0 -250z"/>
<path d="M2351 2128 c-25 -124 -81 -424 -81 -435 0 -9 16 -13 50 -13 49 0 49
0 55 38 12 69 14 72 50 72 32 0 35 -3 40 -37 13 -74 12 -73 66 -73 50 0 51 0
45 28 -12 57 -86 455 -86 463 0 5 -29 9 -64 9 l-65 0 -10 -52z m98 -260 c1
-13 -7 -18 -24 -18 -29 0 -29 2 -13 107 l12 78 12 -75 c7 -41 13 -83 13 -92z"/>
<path d="M2630 1930 l0 -250 90 0 c109 0 163 18 188 64 14 25 17 59 17 186 0
227 -18 250 -200 250 l-95 0 0 -250z m178 11 c3 -164 -1 -181 -44 -181 l-24 0
0 171 0 170 33 -3 32 -3 3 -154z"/>
<path d="M3021 1948 c-23 -128 -45 -241 -47 -250 -5 -16 2 -18 49 -18 l53 0
10 53 c9 51 10 52 44 52 34 0 35 -1 44 -52 l9 -53 48 0 c38 0 49 4 49 16 0 17
-78 438 -86 467 -4 14 -17 17 -67 17 l-62 0 -44 -232z m124 -20 l7 -78 -27 0
c-19 0 -26 4 -22 14 3 8 9 46 13 86 4 39 10 68 14 63 5 -4 11 -43 15 -85z"/>
</g>
</svg>
